<svg width="63" height="63" viewBox="0 0 63 63" fill="none" xmlns="http://www.w3.org/2000/svg">
<path d="M24.1 63C23.2333 63 22.5 62.7 21.9 62.1C21.3 61.5 21 60.7667 21 59.9V59.1C21 58.2333 20.7 57.5 20.1 56.9C19.5 56.3 18.7667 56 17.9 56H17.2C16.3333 56 15.6 55.7 15 55.1C14.4 54.5 14.1 53.7667 14.1 52.9V52.1C14.1 51.2333 13.8 50.5 13.2 49.9C12.6 49.3 11.8667 49 11 49H10.2C9.33333 49 8.6 48.7 8 48.1C7.4 47.5 7.1 46.7667 7.1 45.9V41.6C7.1 40.7333 6.8 40 6.2 39.4C5.6 38.8 4.86667 38.5 4 38.5H3.1C2.23333 38.5 1.5 38.2 0.9 37.6C0.3 37 5.66244e-07 36.2667 5.66244e-07 35.4V24.1C5.66244e-07 23.2333 0.3 22.5 0.9 21.9C1.5 21.3 2.23333 21 3.1 21H4C4.86667 21 5.6 20.7 6.2 20.1C6.8 19.5 7.1 18.7667 7.1 17.9V17.1C7.1 16.2333 7.4 15.5 8 14.9C8.6 14.3 9.33333 14 10.2 14H11C11.8667 14 12.6 13.7 13.2 13.1C13.8 12.5 14.1 11.7667 14.1 10.9V10.1C14.1 9.23333 14.4 8.5 15 7.9C15.6 7.3 16.3333 7 17.2 7H17.9C18.7667 7 19.5 6.7 20.1 6.1C20.7 5.5 21 4.76667 21 3.9V3.1C21 2.23333 21.3 1.5 21.9 0.899995C22.5 0.299995 23.2333 -5.48363e-06 24.1 -5.48363e-06H24.9C25.7667 -5.48363e-06 26.5 0.299995 27.1 0.899995C27.7 1.5 28 2.23333 28 3.1V7.39999C28 8.26666 27.7 9 27.1 9.6C26.5 10.2 25.7667 10.5 24.9 10.5H24.1C23.2333 10.5 22.5 10.8 21.9 11.4C21.3 12 21 12.7333 21 13.6V14.4C21 15.2667 20.7 16 20.1 16.6C19.5 17.2 18.7667 17.5 17.9 17.5H17.2C16.3333 17.5 15.6 17.8 15 18.4C14.4 19 14.1 19.7333 14.1 20.6V24.9C14.1 25.7667 14.4 26.5 15 27.1C15.6 27.7 16.3333 28 17.2 28H59.9C60.7667 28 61.5 28.3 62.1 28.9C62.7 29.5 63 30.2333 63 31.1V35.4C63 36.2667 62.7 37 62.1 37.6C61.5 38.2 60.7667 38.5 59.9 38.5H17.2C16.3333 38.5 15.6 38.8 15 39.4C14.4 40 14.1 40.7333 14.1 41.6V42.4C14.1 43.2667 14.4 44 15 44.6C15.6 45.2 16.3333 45.5 17.2 45.5H17.9C18.7667 45.5 19.5 45.8 20.1 46.4C20.7 47 21 47.7333 21 48.6V49.4C21 50.2667 21.3 51 21.9 51.6C22.5 52.2 23.2333 52.5 24.1 52.5H24.9C25.7667 52.5 26.5 52.8 27.1 53.4C27.7 54 28 54.7333 28 55.6V59.9C28 60.7667 27.7 61.5 27.1 62.1C26.5 62.7 25.7667 63 24.9 63H24.1Z" fill="#51D8D2"/>
</svg>
