<?xml version="1.0" encoding="UTF-8"?>
<svg id="Layer_1" data-name="Layer 1" xmlns="http://www.w3.org/2000/svg" viewBox="0 0 378 378">
  <defs>
    <style>
      .cls-1 {
        fill: #dc6cc6;
      }
    </style>
  </defs>
  <path class="cls-1" d="m131.4,372.6c-3.6-3.6-5.4-8-5.4-13.2v-4.8c0-5.19-1.8-9.6-5.4-13.2-3.6-3.6-8.01-5.4-13.2-5.4h-4.2c-5.2,0-9.6-1.8-13.2-5.4-3.6-3.6-5.4-8-5.4-13.2v-4.8c0-5.19-1.8-9.6-5.4-13.2-3.6-3.6-8.01-5.4-13.2-5.4h-4.8c-5.2,0-9.6-1.8-13.2-5.4-3.6-3.6-5.4-8-5.4-13.2v-25.8c0-5.19-1.8-9.6-5.4-13.2-3.6-3.6-8.01-5.4-13.2-5.4h-5.4c-5.2,0-9.6-1.8-13.2-5.4-3.6-3.6-5.4-8-5.4-13.2v-67.8c0-5.19,1.8-9.6,5.4-13.2s8-5.4,13.2-5.4h5.4c5.19,0,9.6-1.8,13.2-5.4,3.6-3.6,5.4-8,5.4-13.2v-4.8c0-5.19,1.8-9.6,5.4-13.2s8-5.4,13.2-5.4h4.8c5.19,0,9.6-1.8,13.2-5.4,3.6-3.6,5.4-8,5.4-13.2v-4.8c0-5.19,1.8-9.6,5.4-13.2s8-5.4,13.2-5.4h4.2c5.19,0,9.6-1.8,13.2-5.4s5.4-8,5.4-13.2v-4.8c0-5.19,1.8-9.6,5.4-13.2s8-5.4,13.2-5.4h4.8c5.19,0,9.6,1.8,13.2,5.4s5.4,8.01,5.4,13.2v25.8c0,5.2-1.8,9.6-5.4,13.2s-8.01,5.4-13.2,5.4h-4.8c-5.2,0-9.6,1.8-13.2,5.4s-5.4,8.01-5.4,13.2v4.8c0,5.2-1.8,9.6-5.4,13.2s-8.01,5.4-13.2,5.4h-4.2c-5.2,0-9.6,1.8-13.2,5.4s-5.4,8.01-5.4,13.2v25.8c0,5.2,1.8,9.6,5.4,13.2s8,5.4,13.2,5.4h256.2c5.19,0,9.6,1.8,13.2,5.4s5.4,8.01,5.4,13.2v25.8c0,5.2-1.8,9.6-5.4,13.2-3.6,3.6-8.01,5.4-13.2,5.4H103.2c-5.2,0-9.6,1.8-13.2,5.4-3.6,3.6-5.4,8.01-5.4,13.2v4.8c0,5.2,1.8,9.6,5.4,13.2,3.6,3.6,8,5.4,13.2,5.4h4.2c5.19,0,9.6,1.8,13.2,5.4,3.6,3.6,5.4,8.01,5.4,13.2v4.8c0,5.2,1.8,9.6,5.4,13.2,3.6,3.6,8,5.4,13.2,5.4h4.8c5.19,0,9.6,1.8,13.2,5.4,3.6,3.6,5.4,8.01,5.4,13.2v25.8c0,5.2-1.8,9.6-5.4,13.2-3.6,3.6-8.01,5.4-13.2,5.4h-4.8c-5.2,0-9.6-1.8-13.2-5.4Z"/>
</svg>